<svg width="48" height="53" viewBox="0 0 48 53" fill="none" xmlns="http://www.w3.org/2000/svg">
<path d="M2.65318 14.8699L3.46127 16.1336L2.65318 14.8699C1.93471 15.3293 1.5 16.1233 1.5 16.9761V36.0239C1.5 36.8767 1.93471 37.6707 2.65318 38.1301L22.6532 50.9192L23.4613 49.6555L22.6532 50.9192C23.4743 51.4443 24.5257 51.4443 25.3468 50.9192L45.3468 38.1301C46.0653 37.6707 46.5 36.8767 46.5 36.0239V26.5V16.9761C46.5 16.1233 46.0653 15.3293 45.3468 14.8699L25.3468 2.08077C24.5257 1.5557 23.4743 1.55571 22.6532 2.08077L2.65318 14.8699Z" stroke="#64FFDA" stroke-width="3"/>
<path d="M27.3906 22.0582C27.2921 21.1842 26.8859 20.5071 26.1719 20.027C25.4579 19.5407 24.5592 19.2976 23.4759 19.2976C22.7003 19.2976 22.0294 19.4207 21.4631 19.6669C20.8968 19.907 20.4567 20.2393 20.1428 20.6641C19.835 21.0826 19.6811 21.5597 19.6811 22.0952C19.6811 22.5445 19.7857 22.9323 19.995 23.2585C20.2105 23.5848 20.4905 23.8587 20.8352 24.0803C21.1861 24.2957 21.5616 24.4773 21.9616 24.625C22.3617 24.7666 22.7464 24.8835 23.1158 24.9759L24.9624 25.456C25.5656 25.6037 26.1842 25.8037 26.8182 26.0561C27.4522 26.3085 28.04 26.6409 28.5817 27.0533C29.1233 27.4657 29.5604 27.9766 29.8928 28.5859C30.2313 29.1953 30.4006 29.9247 30.4006 30.7741C30.4006 31.8452 30.1236 32.7962 29.5696 33.6271C29.0218 34.4581 28.2247 35.1136 27.1783 35.5938C26.138 36.0739 24.8793 36.3139 23.402 36.3139C21.9863 36.3139 20.7614 36.0893 19.7273 35.6399C18.6932 35.1906 17.8838 34.5535 17.299 33.7287C16.7143 32.8977 16.3911 31.9129 16.3295 30.7741H19.1918C19.2472 31.4574 19.4688 32.0268 19.8565 32.4822C20.2505 32.9316 20.7521 33.267 21.3615 33.4886C21.977 33.7041 22.651 33.8118 23.3835 33.8118C24.1899 33.8118 24.907 33.6856 25.5348 33.4332C26.1688 33.1747 26.6674 32.8177 27.0305 32.3622C27.3937 31.9006 27.5753 31.362 27.5753 30.7464C27.5753 30.1863 27.4152 29.7277 27.0952 29.3707C26.7813 29.0137 26.3535 28.7183 25.8118 28.4844C25.2763 28.2505 24.67 28.0443 23.9929 27.8658L21.7585 27.2564C20.2443 26.844 19.044 26.2377 18.1577 25.4375C17.2775 24.6373 16.8374 23.5786 16.8374 22.2614C16.8374 21.1719 17.1328 20.2209 17.7237 19.4084C18.3146 18.5959 19.1148 17.965 20.1243 17.5156C21.1338 17.0601 22.2725 16.8324 23.5405 16.8324C24.8208 16.8324 25.9503 17.0571 26.929 17.5064C27.9138 17.9557 28.6894 18.5743 29.2557 19.3622C29.822 20.1439 30.1174 21.0426 30.142 22.0582H27.3906Z" fill="#64FFDA"/>
</svg>
