<svg width="47" height="39" viewBox="0 0 47 39" fill="none" xmlns="http://www.w3.org/2000/svg">
<path d="M44.7656 27.4375C44.7656 27.5417 44.7344 27.6354 44.6719 27.7188C44.6198 27.8021 44.5156 27.8698 44.3594 27.9219C44.2135 27.974 44.0156 28.0156 43.7656 28.0469C43.5156 28.0781 43.1979 28.0938 42.8125 28.0938C42.4375 28.0938 42.125 28.0781 41.875 28.0469C41.625 28.0156 41.4271 27.974 41.2812 27.9219C41.1354 27.8698 41.0312 27.8021 40.9688 27.7188C40.9062 27.6354 40.875 27.5417 40.875 27.4375V10.9844H40.8438L34.9844 27.4219C34.9427 27.5573 34.875 27.6719 34.7812 27.7656C34.6875 27.849 34.5573 27.9167 34.3906 27.9688C34.2344 28.0208 34.0312 28.0521 33.7812 28.0625C33.5312 28.0833 33.2292 28.0938 32.875 28.0938C32.5208 28.0938 32.2188 28.0781 31.9688 28.0469C31.7188 28.026 31.5104 27.9896 31.3438 27.9375C31.1875 27.875 31.0625 27.8021 30.9688 27.7188C30.875 27.6354 30.8125 27.5365 30.7812 27.4219L25.125 10.9844H25.0938V27.4375C25.0938 27.5417 25.0625 27.6354 25 27.7188C24.9479 27.8021 24.8438 27.8698 24.6875 27.9219C24.5312 27.974 24.3281 28.0156 24.0781 28.0469C23.8385 28.0781 23.526 28.0938 23.1406 28.0938C22.7656 28.0938 22.4531 28.0781 22.2031 28.0469C21.9531 28.0156 21.75 27.974 21.5938 27.9219C21.4479 27.8698 21.3438 27.8021 21.2812 27.7188C21.2292 27.6354 21.2031 27.5417 21.2031 27.4375V9.42188C21.2031 8.89062 21.3438 8.48438 21.625 8.20312C21.9062 7.92188 22.2812 7.78125 22.75 7.78125H25.4375C25.9167 7.78125 26.3281 7.82292 26.6719 7.90625C27.0156 7.97917 27.3125 8.10938 27.5625 8.29688C27.8125 8.47396 28.0208 8.71354 28.1875 9.01562C28.3542 9.30729 28.5 9.67188 28.625 10.1094L33 22.1562H33.0625L37.5938 10.1406C37.7292 9.70312 37.875 9.33333 38.0312 9.03125C38.1979 8.72917 38.3854 8.48438 38.5938 8.29688C38.8125 8.10938 39.0677 7.97917 39.3594 7.90625C39.651 7.82292 39.9896 7.78125 40.375 7.78125H43.1406C43.4219 7.78125 43.6615 7.81771 43.8594 7.89062C44.0677 7.96354 44.2344 8.07292 44.3594 8.21875C44.4948 8.35417 44.5938 8.52604 44.6562 8.73438C44.7292 8.93229 44.7656 9.16146 44.7656 9.42188V27.4375Z" fill="#5c5c57"/>
<path d="M14.1875 21.9375C14.1875 23 13.9896 23.9323 13.5938 24.7344C13.1979 25.5365 12.6615 26.2083 11.9844 26.75C11.3073 27.2812 10.5156 27.6823 9.60938 27.9531C8.70312 28.224 7.73438 28.3594 6.70312 28.3594C6.00521 28.3594 5.35417 28.3021 4.75 28.1875C4.15625 28.0729 3.63021 27.9375 3.17188 27.7812C2.71354 27.6146 2.32812 27.4427 2.01562 27.2656C1.71354 27.0885 1.49479 26.9323 1.35938 26.7969C1.22396 26.6615 1.125 26.4688 1.0625 26.2188C1.01042 25.9583 0.984375 25.5885 0.984375 25.1094C0.984375 24.7865 0.994792 24.5156 1.01562 24.2969C1.03646 24.0781 1.06771 23.901 1.10938 23.7656C1.16146 23.6302 1.22396 23.5365 1.29688 23.4844C1.38021 23.4219 1.47396 23.3906 1.57812 23.3906C1.72396 23.3906 1.92708 23.4792 2.1875 23.6562C2.45833 23.8229 2.80208 24.0104 3.21875 24.2188C3.63542 24.4271 4.13021 24.6198 4.70312 24.7969C5.28646 24.9635 5.95833 25.0469 6.71875 25.0469C7.21875 25.0469 7.66667 24.9896 8.0625 24.875C8.45833 24.75 8.79167 24.5781 9.0625 24.3594C9.34375 24.1406 9.55729 23.8698 9.70312 23.5469C9.84896 23.224 9.92188 22.8646 9.92188 22.4688C9.92188 22.0104 9.79688 21.6198 9.54688 21.2969C9.29688 20.9635 8.96875 20.6719 8.5625 20.4219C8.16667 20.1615 7.71354 19.9219 7.20312 19.7031C6.69271 19.474 6.16667 19.2344 5.625 18.9844C5.08333 18.7344 4.55729 18.4531 4.04688 18.1406C3.53646 17.8177 3.07812 17.4375 2.67188 17C2.27604 16.5521 1.95312 16.026 1.70312 15.4219C1.45312 14.8177 1.32812 14.0938 1.32812 13.25C1.32812 12.2812 1.50521 11.4323 1.85938 10.7031C2.22396 9.96354 2.70833 9.35417 3.3125 8.875C3.92708 8.38542 4.64583 8.02083 5.46875 7.78125C6.30208 7.54167 7.18229 7.42188 8.10938 7.42188C8.58854 7.42188 9.06771 7.45833 9.54688 7.53125C10.026 7.60417 10.474 7.70312 10.8906 7.82812C11.3073 7.95312 11.6771 8.09375 12 8.25C12.3229 8.40625 12.5365 8.53646 12.6406 8.64062C12.7448 8.74479 12.8125 8.83333 12.8438 8.90625C12.8854 8.97917 12.9167 9.07812 12.9375 9.20312C12.9688 9.31771 12.9896 9.46875 13 9.65625C13.0104 9.83333 13.0156 10.0573 13.0156 10.3281C13.0156 10.6302 13.0052 10.8854 12.9844 11.0938C12.974 11.3021 12.9479 11.474 12.9062 11.6094C12.875 11.7448 12.8229 11.8438 12.75 11.9062C12.6875 11.9688 12.599 12 12.4844 12C12.3698 12 12.1875 11.9271 11.9375 11.7812C11.6875 11.6354 11.3802 11.4792 11.0156 11.3125C10.651 11.1354 10.2292 10.9792 9.75 10.8438C9.27083 10.6979 8.74479 10.625 8.17188 10.625C7.72396 10.625 7.33333 10.6823 7 10.7969C6.66667 10.901 6.38542 11.0521 6.15625 11.25C5.9375 11.4375 5.77083 11.6667 5.65625 11.9375C5.55208 12.2083 5.5 12.4948 5.5 12.7969C5.5 13.2448 5.61979 13.6354 5.85938 13.9688C6.10938 14.2917 6.4375 14.5833 6.84375 14.8438C7.26042 15.0938 7.72917 15.3333 8.25 15.5625C8.77083 15.7812 9.30208 16.0156 9.84375 16.2656C10.3854 16.5156 10.9167 16.8021 11.4375 17.125C11.9583 17.4375 12.4219 17.8177 12.8281 18.2656C13.2344 18.7031 13.5625 19.224 13.8125 19.8281C14.0625 20.4219 14.1875 21.125 14.1875 21.9375Z" fill="#5c5c57"/>
</svg>
